<?xml version="1.0" encoding="UTF-8"?>
<svg id="Layer_2" data-name="Layer 2" xmlns="http://www.w3.org/2000/svg" viewBox="0 0 426.13 300.11">
  <defs>
    <style>
      .cls-1 {
        fill: #a4c8e0;
      }
    </style>
  </defs>
  <g id="Layer_1-2" data-name="Layer 1">
    <g>
      <g>
        <polygon class="cls-1" points="155.72 115.25 190.88 94.6 190.88 0 155.72 0 155.72 115.25"/>
        <polygon class="cls-1" points="235.25 115.25 270.41 94.6 270.41 0 235.25 0 235.25 115.25"/>
        <polygon class="cls-1" points="155.72 115.25 176.36 150.42 270.41 150.42 270.41 115.25 155.72 115.25"/>
      </g>
      <g>
        <path class="cls-1" d="M35.81,270.24c-25.87,0-35.81-11.5-35.81-32.82v-54.73h21.56v54.73c0,11.14,4.79,15.21,14.25,15.21s14.25-4.07,14.25-15.21v-54.73h21.56v54.73c0,21.32-9.94,32.82-35.81,32.82Z"/>
        <path class="cls-1" d="M82.76,182.69h21.56l29.94,50.9h.24v-50.9h21.56v85.63h-21.56l-29.94-50.9h-.24v50.9h-21.56v-85.63Z"/>
        <path class="cls-1" d="M189.47,182.69v85.63h-21.56v-85.63h21.56Z"/>
        <path class="cls-1" d="M220.49,200.3h-24.91v-17.61h71.26v17.61h-24.79v68.03h-21.56v-68.03Z"/>
        <path class="cls-1" d="M333.67,215.51v17.61h-37.37v17.61h44.07v17.61h-65.63v-85.63h64.91v17.61h-43.36v15.21h37.37Z"/>
        <path class="cls-1" d="M349.96,182.69h37.97c23.83,0,38.21,15.33,38.21,42.88s-13.17,42.76-37.01,42.76h-39.16v-85.63ZM371.52,250.72h14.25c13.41,0,18.8-9.58,18.8-25.15s-5.39-25.27-18.8-25.27h-14.25v50.42Z"/>
      </g>
      <g>
        <path class="cls-1" d="M91.26,280.96h8.07c3.92,0,6.56,2,6.56,5.33,0,2.71-1.36,4.2-3.56,4.73v.05c4.42.81,2.81,8.2,3.84,8.51v.16h-2.7c-.86-.79,1.03-7.59-4.01-7.59h-5.7v7.59h-2.5v-18.79ZM93.76,290.05h4.98c2.06,0,4.65-.24,4.65-3.49s-2.59-3.49-4.65-3.49h-4.98v6.99Z"/>
        <path class="cls-1" d="M129.7,295.62h2.23c-.72,2.5-2.75,4.49-6.29,4.49-4.31,0-6.93-2.86-6.93-7.07,0-4.47,2.67-7.07,6.82-7.07,4.45,0,6.62,2.86,6.62,7.62h-11.21c0,2.42,1.53,4.68,4.62,4.68,2.84,0,3.89-1.73,4.15-2.65ZM120.94,291.75h8.98c0-2.15-1.72-3.94-4.4-3.94s-4.59,1.79-4.59,3.94Z"/>
        <path class="cls-1" d="M151.26,287.81c-2.7,0-3.59.74-3.73,2.68h-2.23c.14-2.57,1.84-4.52,5.95-4.52,2.7,0,5.12,1,5.12,4.23v6.52c0,1.05.19,1.63,1.61,1.47v1.47c-.58.18-.89.21-1.31.21-1.34,0-2.14-.34-2.53-1.81h-.06c-.89,1.26-2.48,2.05-4.81,2.05-2.87,0-4.67-1.55-4.67-3.81,0-3.05,2.39-3.84,6.06-4.49,2.39-.42,3.48-.71,3.48-2.05,0-1.05-.61-1.94-2.89-1.94ZM154.15,294.57v-2.23c-.42.39-1.78.76-3.28,1.05-2.75.55-4.03,1.21-4.03,2.81,0,1.31.83,2.08,2.67,2.08,2.64,0,4.65-1.13,4.65-3.7Z"/>
        <path class="cls-1" d="M173.1,280.96v18.79h-2.23v-18.79h2.23Z"/>
        <path class="cls-1" d="M217.11,288.97v2.1h-10.21v6.57h11.88v2.1h-14.38v-18.79h14.05v2.1h-11.54v5.91h10.21Z"/>
        <path class="cls-1" d="M243.37,296.06c0,2.44-2.36,4.05-5.59,4.05-4.34,0-6.34-1.94-6.48-4.83h2.23c.14,1.5.7,3,4.26,3,2.42,0,3.37-1.18,3.37-2.08,0-1.94-1.86-2.05-3.89-2.52-2.17-.5-5.4-.74-5.4-3.89,0-2.1,1.97-3.81,5.31-3.81,3.53,0,5.42,1.89,5.65,4.2h-2.23c-.22-1.02-.75-2.36-3.42-2.36-2,0-3.09.76-3.09,1.81,0,1.58,1.92,1.71,3.89,2.15,2.53.58,5.4.97,5.4,4.28Z"/>
        <path class="cls-1" d="M259.78,288.18v8.07c0,1.52.89,1.79,2.78,1.66v1.84c-.5.1-1.08.16-1.67.16-1.89,0-3.34-.71-3.34-3.44v-8.28h-2.09v-1.84h2.09v-4.47h2.23v4.47h2.78v1.84h-2.78Z"/>
        <path class="cls-1" d="M281.81,287.81c-2.7,0-3.59.74-3.73,2.68h-2.23c.14-2.57,1.84-4.52,5.95-4.52,2.7,0,5.12,1,5.12,4.23v6.52c0,1.05.19,1.63,1.61,1.47v1.47c-.58.18-.89.21-1.31.21-1.34,0-2.14-.34-2.53-1.81h-.06c-.89,1.26-2.48,2.05-4.81,2.05-2.87,0-4.67-1.55-4.67-3.81,0-3.05,2.39-3.84,6.06-4.49,2.39-.42,3.48-.71,3.48-2.05,0-1.05-.61-1.94-2.89-1.94ZM284.71,294.57v-2.23c-.42.39-1.78.76-3.28,1.05-2.75.55-4.03,1.21-4.03,2.81,0,1.31.83,2.08,2.67,2.08,2.64,0,4.65-1.13,4.65-3.7Z"/>
        <path class="cls-1" d="M304.46,288.18v8.07c0,1.52.89,1.79,2.78,1.66v1.84c-.5.1-1.08.16-1.67.16-1.89,0-3.34-.71-3.34-3.44v-8.28h-2.09v-1.84h2.09v-4.47h2.23v4.47h2.78v1.84h-2.78Z"/>
        <path class="cls-1" d="M330.75,295.62h2.23c-.72,2.5-2.75,4.49-6.29,4.49-4.31,0-6.93-2.86-6.93-7.07,0-4.47,2.67-7.07,6.82-7.07,4.45,0,6.62,2.86,6.62,7.62h-11.21c0,2.42,1.53,4.68,4.62,4.68,2.84,0,3.89-1.73,4.14-2.65ZM321.98,291.75h8.98c0-2.15-1.72-3.94-4.4-3.94s-4.59,1.79-4.59,3.94Z"/>
      </g>
    </g>
  </g>
</svg>